<mxfile host="app.diagrams.net" agent="Mozilla/5.0 (Windows NT 10.0; Win64; x64) AppleWebKit/537.36 (KHTML, like Gecko) Chrome/128.0.0.0 Safari/537.36" version="25.0.3">
  <diagram name="Page-1" id="PZsbwP2dQ7sxt0bCHnnV">
    <mxGraphModel grid="1" page="1" gridSize="10" guides="1" tooltips="1" connect="1" arrows="1" fold="1" pageScale="1" pageWidth="850" pageHeight="1100" math="0" shadow="0">
      <root>
        <mxCell id="0" />
        <mxCell id="1" parent="0" />
        <mxCell id="aP-4k5T7EdWQ0tLdJbdZ-1" value="&lt;span&gt;Browser&lt;/span&gt;" style="rounded=0;whiteSpace=wrap;html=1;fontStyle=0" vertex="1" parent="1">
          <mxGeometry x="120" y="40" width="80" height="40" as="geometry" />
        </mxCell>
        <mxCell id="aP-4k5T7EdWQ0tLdJbdZ-3" style="edgeStyle=orthogonalEdgeStyle;rounded=0;orthogonalLoop=1;jettySize=auto;html=1;exitX=0.5;exitY=0;exitDx=0;exitDy=0;entryX=0.5;entryY=1;entryDx=0;entryDy=0;endArrow=none;endFill=0;dashed=1;dashPattern=8 8;" edge="1" parent="1" source="aP-4k5T7EdWQ0tLdJbdZ-2" target="aP-4k5T7EdWQ0tLdJbdZ-1">
          <mxGeometry relative="1" as="geometry" />
        </mxCell>
        <mxCell id="aP-4k5T7EdWQ0tLdJbdZ-2" value="Browser" style="rounded=0;whiteSpace=wrap;html=1;" vertex="1" parent="1">
          <mxGeometry x="120" y="480" width="80" height="40" as="geometry" />
        </mxCell>
        <mxCell id="aP-4k5T7EdWQ0tLdJbdZ-12" value="" style="edgeStyle=orthogonalEdgeStyle;rounded=0;orthogonalLoop=1;jettySize=auto;html=1;dashed=1;dashPattern=8 8;endArrow=none;endFill=0;" edge="1" parent="1" source="aP-4k5T7EdWQ0tLdJbdZ-4" target="aP-4k5T7EdWQ0tLdJbdZ-7">
          <mxGeometry relative="1" as="geometry" />
        </mxCell>
        <mxCell id="aP-4k5T7EdWQ0tLdJbdZ-4" value="&lt;span&gt;Server&lt;/span&gt;" style="rounded=0;whiteSpace=wrap;html=1;fontStyle=0" vertex="1" parent="1">
          <mxGeometry x="280" y="40" width="80" height="40" as="geometry" />
        </mxCell>
        <mxCell id="8m5L4hxxBVkurXY3OP7I-15" style="edgeStyle=orthogonalEdgeStyle;rounded=0;orthogonalLoop=1;jettySize=auto;html=1;exitX=0.5;exitY=1;exitDx=0;exitDy=0;entryX=0.5;entryY=0;entryDx=0;entryDy=0;endArrow=none;endFill=0;dashed=1;dashPattern=8 8;" edge="1" parent="1" source="aP-4k5T7EdWQ0tLdJbdZ-7" target="8m5L4hxxBVkurXY3OP7I-13">
          <mxGeometry relative="1" as="geometry">
            <mxPoint x="320" y="430" as="sourcePoint" />
          </mxGeometry>
        </mxCell>
        <mxCell id="aP-4k5T7EdWQ0tLdJbdZ-7" value="" style="rounded=0;whiteSpace=wrap;html=1;" vertex="1" parent="1">
          <mxGeometry x="310" y="130" width="20" height="300" as="geometry" />
        </mxCell>
        <mxCell id="aP-4k5T7EdWQ0tLdJbdZ-8" value="" style="endArrow=classic;html=1;rounded=0;entryX=0;entryY=0;entryDx=0;entryDy=0;" edge="1" parent="1" target="aP-4k5T7EdWQ0tLdJbdZ-7">
          <mxGeometry width="50" height="50" relative="1" as="geometry">
            <mxPoint x="160" y="130" as="sourcePoint" />
            <mxPoint x="210" y="200" as="targetPoint" />
          </mxGeometry>
        </mxCell>
        <mxCell id="aP-4k5T7EdWQ0tLdJbdZ-9" value="GET &quot;/&quot;" style="edgeLabel;html=1;align=center;verticalAlign=middle;resizable=0;points=[];" connectable="0" vertex="1" parent="aP-4k5T7EdWQ0tLdJbdZ-8">
          <mxGeometry x="-0.5181" relative="1" as="geometry">
            <mxPoint x="33" y="-10" as="offset" />
          </mxGeometry>
        </mxCell>
        <mxCell id="aP-4k5T7EdWQ0tLdJbdZ-10" value="" style="endArrow=classic;html=1;rounded=0;exitX=0;exitY=1;exitDx=0;exitDy=0;" edge="1" parent="1">
          <mxGeometry width="50" height="50" relative="1" as="geometry">
            <mxPoint x="310" y="430" as="sourcePoint" />
            <mxPoint x="160" y="430" as="targetPoint" />
          </mxGeometry>
        </mxCell>
        <mxCell id="aP-4k5T7EdWQ0tLdJbdZ-11" value="200" style="edgeLabel;html=1;align=center;verticalAlign=middle;resizable=0;points=[];" connectable="0" vertex="1" parent="aP-4k5T7EdWQ0tLdJbdZ-10">
          <mxGeometry x="0.6492" y="1" relative="1" as="geometry">
            <mxPoint x="54" y="-11" as="offset" />
          </mxGeometry>
        </mxCell>
        <mxCell id="8m5L4hxxBVkurXY3OP7I-7" style="edgeStyle=orthogonalEdgeStyle;rounded=0;orthogonalLoop=1;jettySize=auto;html=1;exitX=1;exitY=0.25;exitDx=0;exitDy=0;entryX=0;entryY=0;entryDx=0;entryDy=0;" edge="1" parent="1" target="8m5L4hxxBVkurXY3OP7I-6">
          <mxGeometry relative="1" as="geometry">
            <mxPoint x="340" y="219.72" as="sourcePoint" />
            <mxPoint x="470" y="219.72" as="targetPoint" />
            <Array as="points">
              <mxPoint x="404" y="220" />
              <mxPoint x="466" y="220" />
            </Array>
          </mxGeometry>
        </mxCell>
        <mxCell id="8m5L4hxxBVkurXY3OP7I-9" value="ReadCheeps()" style="edgeLabel;html=1;align=center;verticalAlign=middle;resizable=0;points=[];" connectable="0" vertex="1" parent="8m5L4hxxBVkurXY3OP7I-7">
          <mxGeometry x="-0.188" y="-1" relative="1" as="geometry">
            <mxPoint x="17" y="-11" as="offset" />
          </mxGeometry>
        </mxCell>
        <mxCell id="aP-4k5T7EdWQ0tLdJbdZ-13" value="" style="rounded=0;whiteSpace=wrap;html=1;" vertex="1" parent="1">
          <mxGeometry x="320" y="190" width="20" height="220" as="geometry" />
        </mxCell>
        <mxCell id="8m5L4hxxBVkurXY3OP7I-1" style="edgeStyle=orthogonalEdgeStyle;rounded=0;orthogonalLoop=1;jettySize=auto;html=1;entryX=1;entryY=0;entryDx=0;entryDy=0;" edge="1" parent="1" target="aP-4k5T7EdWQ0tLdJbdZ-13">
          <mxGeometry relative="1" as="geometry">
            <Array as="points">
              <mxPoint x="330" y="180" />
              <mxPoint x="360" y="180" />
              <mxPoint x="360" y="190" />
            </Array>
            <mxPoint x="330" y="180" as="sourcePoint" />
          </mxGeometry>
        </mxCell>
        <mxCell id="8m5L4hxxBVkurXY3OP7I-2" value="OnGet()" style="edgeLabel;html=1;align=center;verticalAlign=middle;resizable=0;points=[];" connectable="0" vertex="1" parent="8m5L4hxxBVkurXY3OP7I-1">
          <mxGeometry x="-0.4742" y="1" relative="1" as="geometry">
            <mxPoint x="9" y="-8" as="offset" />
          </mxGeometry>
        </mxCell>
        <mxCell id="8m5L4hxxBVkurXY3OP7I-3" value="" style="edgeStyle=orthogonalEdgeStyle;rounded=0;orthogonalLoop=1;jettySize=auto;html=1;dashed=1;dashPattern=8 8;endArrow=none;endFill=0;entryX=0.5;entryY=0;entryDx=0;entryDy=0;" edge="1" parent="1" source="8m5L4hxxBVkurXY3OP7I-4" target="8m5L4hxxBVkurXY3OP7I-6">
          <mxGeometry relative="1" as="geometry">
            <mxPoint x="476.25" y="130" as="targetPoint" />
          </mxGeometry>
        </mxCell>
        <mxCell id="8m5L4hxxBVkurXY3OP7I-4" value="&lt;font&gt;_CheepRepo :&amp;nbsp;&lt;/font&gt;&lt;div&gt;&lt;font&gt;CheepRepository&lt;/font&gt;&lt;/div&gt;" style="rounded=0;whiteSpace=wrap;html=1;" vertex="1" parent="1">
          <mxGeometry x="420" y="120" width="112.5" height="40" as="geometry" />
        </mxCell>
        <mxCell id="8m5L4hxxBVkurXY3OP7I-14" style="edgeStyle=orthogonalEdgeStyle;rounded=0;orthogonalLoop=1;jettySize=auto;html=1;exitX=0.5;exitY=1;exitDx=0;exitDy=0;entryX=0.5;entryY=0;entryDx=0;entryDy=0;endArrow=none;endFill=0;dashed=1;dashPattern=8 8;" edge="1" parent="1" source="8m5L4hxxBVkurXY3OP7I-6">
          <mxGeometry relative="1" as="geometry">
            <mxPoint x="476.25" y="480" as="targetPoint" />
          </mxGeometry>
        </mxCell>
        <mxCell id="8m5L4hxxBVkurXY3OP7I-6" value="" style="rounded=0;whiteSpace=wrap;html=1;" vertex="1" parent="1">
          <mxGeometry x="466.25" y="220" width="20" height="40" as="geometry" />
        </mxCell>
        <mxCell id="8m5L4hxxBVkurXY3OP7I-8" style="edgeStyle=orthogonalEdgeStyle;rounded=0;orthogonalLoop=1;jettySize=auto;html=1;exitX=0;exitY=1;exitDx=0;exitDy=0;entryX=0.995;entryY=0.317;entryDx=0;entryDy=0;entryPerimeter=0;" edge="1" parent="1" source="8m5L4hxxBVkurXY3OP7I-6" target="aP-4k5T7EdWQ0tLdJbdZ-13">
          <mxGeometry relative="1" as="geometry">
            <Array as="points">
              <mxPoint x="350" y="260" />
            </Array>
            <mxPoint x="340" y="230" as="targetPoint" />
          </mxGeometry>
        </mxCell>
        <mxCell id="8m5L4hxxBVkurXY3OP7I-10" value="List&amp;lt;CheepDTO&amp;gt;" style="edgeLabel;html=1;align=center;verticalAlign=middle;resizable=0;points=[];" connectable="0" vertex="1" parent="8m5L4hxxBVkurXY3OP7I-8">
          <mxGeometry x="0.2105" y="1" relative="1" as="geometry">
            <mxPoint x="19" y="-9" as="offset" />
          </mxGeometry>
        </mxCell>
        <mxCell id="8m5L4hxxBVkurXY3OP7I-11" value="HTML" style="shape=note;size=11;whiteSpace=wrap;html=1;" vertex="1" parent="1">
          <mxGeometry x="220" y="440" width="50" height="30" as="geometry" />
        </mxCell>
        <mxCell id="8m5L4hxxBVkurXY3OP7I-13" value="Server" style="rounded=0;whiteSpace=wrap;html=1;" vertex="1" parent="1">
          <mxGeometry x="280" y="480" width="80" height="40" as="geometry" />
        </mxCell>
        <mxCell id="dmQYqFDB0x4nXBeoUKJB-1" value="loop" style="shape=umlFrame;whiteSpace=wrap;html=1;pointerEvents=0;" vertex="1" parent="1">
          <mxGeometry x="200" y="270" width="440" height="110" as="geometry" />
        </mxCell>
        <mxCell id="dmQYqFDB0x4nXBeoUKJB-2" value="[for each cheep]" style="text;html=1;align=center;verticalAlign=middle;resizable=0;points=[];autosize=1;strokeColor=none;fillColor=none;" vertex="1" parent="1">
          <mxGeometry x="195" y="300" width="110" height="30" as="geometry" />
        </mxCell>
        <mxCell id="dmQYqFDB0x4nXBeoUKJB-5" style="edgeStyle=orthogonalEdgeStyle;rounded=0;orthogonalLoop=1;jettySize=auto;html=1;exitX=1;exitY=0.25;exitDx=0;exitDy=0;entryX=0;entryY=0;entryDx=0;entryDy=0;" edge="1" parent="1" target="dmQYqFDB0x4nXBeoUKJB-17">
          <mxGeometry relative="1" as="geometry">
            <mxPoint x="680" y="310" as="targetPoint" />
            <mxPoint x="340" y="310" as="sourcePoint" />
            <Array as="points">
              <mxPoint x="590" y="310" />
              <mxPoint x="590" y="310" />
            </Array>
          </mxGeometry>
        </mxCell>
        <mxCell id="dmQYqFDB0x4nXBeoUKJB-7" value="UnixTimeStampTo&lt;div&gt;DateTimeString()&lt;/div&gt;" style="text;html=1;align=center;verticalAlign=middle;resizable=0;points=[];autosize=1;strokeColor=none;fillColor=none;fontSize=10;" vertex="1" parent="1">
          <mxGeometry x="350" y="276" width="100" height="40" as="geometry" />
        </mxCell>
        <mxCell id="dmQYqFDB0x4nXBeoUKJB-10" value="&lt;div&gt;&lt;font&gt;&amp;lt;&amp;lt;class&amp;gt;&amp;gt;&lt;/font&gt;&lt;/div&gt;&lt;font&gt;CheepRepository&lt;/font&gt;" style="rounded=0;whiteSpace=wrap;html=1;" vertex="1" parent="1">
          <mxGeometry x="560.62" y="40" width="120" height="40" as="geometry" />
        </mxCell>
        <mxCell id="dmQYqFDB0x4nXBeoUKJB-11" style="edgeStyle=orthogonalEdgeStyle;rounded=0;orthogonalLoop=1;jettySize=auto;html=1;exitX=0.5;exitY=1;exitDx=0;exitDy=0;entryX=0.5;entryY=0;entryDx=0;entryDy=0;endArrow=none;endFill=0;dashed=1;dashPattern=8 8;" edge="1" parent="1" source="dmQYqFDB0x4nXBeoUKJB-17" target="dmQYqFDB0x4nXBeoUKJB-19">
          <mxGeometry relative="1" as="geometry">
            <mxPoint x="620.6199999999999" y="230" as="sourcePoint" />
            <mxPoint x="620.6199999999999" y="480" as="targetPoint" />
          </mxGeometry>
        </mxCell>
        <mxCell id="dmQYqFDB0x4nXBeoUKJB-15" style="rounded=0;orthogonalLoop=1;jettySize=auto;html=1;entryX=1;entryY=1;entryDx=0;entryDy=0;exitX=0;exitY=1;exitDx=0;exitDy=0;" edge="1" parent="1" source="dmQYqFDB0x4nXBeoUKJB-17">
          <mxGeometry relative="1" as="geometry">
            <mxPoint x="340" y="340" as="targetPoint" />
            <mxPoint x="680" y="340" as="sourcePoint" />
          </mxGeometry>
        </mxCell>
        <mxCell id="dmQYqFDB0x4nXBeoUKJB-16" value="string" style="text;html=1;align=center;verticalAlign=middle;resizable=0;points=[];autosize=1;strokeColor=none;fillColor=none;fontSize=10;" vertex="1" parent="1">
          <mxGeometry x="375" y="334" width="50" height="30" as="geometry" />
        </mxCell>
        <mxCell id="dmQYqFDB0x4nXBeoUKJB-18" value="" style="edgeStyle=orthogonalEdgeStyle;rounded=0;orthogonalLoop=1;jettySize=auto;html=1;exitX=0.5;exitY=1;exitDx=0;exitDy=0;entryX=0.5;entryY=0;entryDx=0;entryDy=0;endArrow=none;endFill=0;dashed=1;dashPattern=8 8;" edge="1" parent="1" source="dmQYqFDB0x4nXBeoUKJB-10" target="dmQYqFDB0x4nXBeoUKJB-17">
          <mxGeometry relative="1" as="geometry">
            <mxPoint x="621" y="80" as="sourcePoint" />
            <mxPoint x="621" y="480" as="targetPoint" />
          </mxGeometry>
        </mxCell>
        <mxCell id="dmQYqFDB0x4nXBeoUKJB-17" value="" style="rounded=0;whiteSpace=wrap;html=1;" vertex="1" parent="1">
          <mxGeometry x="610" y="310" width="20" height="30" as="geometry" />
        </mxCell>
        <mxCell id="dmQYqFDB0x4nXBeoUKJB-19" value="&lt;div&gt;&lt;font&gt;&amp;lt;&amp;lt;class&amp;gt;&amp;gt;&lt;/font&gt;&lt;/div&gt;&lt;font&gt;CheepRepository&lt;/font&gt;" style="rounded=0;whiteSpace=wrap;html=1;" vertex="1" parent="1">
          <mxGeometry x="560" y="480" width="120" height="40" as="geometry" />
        </mxCell>
        <mxCell id="dmQYqFDB0x4nXBeoUKJB-21" style="edgeStyle=orthogonalEdgeStyle;rounded=0;orthogonalLoop=1;jettySize=auto;html=1;exitX=1;exitY=1;exitDx=0;exitDy=0;entryX=0.991;entryY=0.978;entryDx=0;entryDy=0;entryPerimeter=0;" edge="1" parent="1" source="aP-4k5T7EdWQ0tLdJbdZ-13" target="aP-4k5T7EdWQ0tLdJbdZ-7">
          <mxGeometry relative="1" as="geometry">
            <Array as="points">
              <mxPoint x="350" y="410" />
              <mxPoint x="350" y="423" />
            </Array>
          </mxGeometry>
        </mxCell>
        <mxCell id="dmQYqFDB0x4nXBeoUKJB-22" value="ActionResult" style="text;html=1;align=center;verticalAlign=middle;resizable=0;points=[];autosize=1;strokeColor=none;fillColor=none;" vertex="1" parent="1">
          <mxGeometry x="335" y="420" width="90" height="30" as="geometry" />
        </mxCell>
        <mxCell id="dmQYqFDB0x4nXBeoUKJB-24" value="Legend" style="text;html=1;align=center;verticalAlign=middle;resizable=0;points=[];autosize=1;strokeColor=none;fillColor=none;" vertex="1" parent="1">
          <mxGeometry x="800" y="80" width="60" height="30" as="geometry" />
        </mxCell>
        <mxCell id="dmQYqFDB0x4nXBeoUKJB-25" value="instance : class" style="rounded=0;whiteSpace=wrap;html=1;fontStyle=0;fontSize=8;" vertex="1" parent="1">
          <mxGeometry x="740" y="120" width="50" height="30" as="geometry" />
        </mxCell>
        <mxCell id="dmQYqFDB0x4nXBeoUKJB-29" value="" style="edgeStyle=none;orthogonalLoop=1;jettySize=auto;html=1;rounded=0;" edge="1" parent="1">
          <mxGeometry width="100" relative="1" as="geometry">
            <mxPoint x="100" y="200" as="sourcePoint" />
            <mxPoint x="100" y="360" as="targetPoint" />
            <Array as="points" />
          </mxGeometry>
        </mxCell>
        <mxCell id="dmQYqFDB0x4nXBeoUKJB-30" value="Time&amp;nbsp;&lt;div&gt;Passes&lt;/div&gt;" style="edgeLabel;html=1;align=center;verticalAlign=middle;resizable=0;points=[];" connectable="0" vertex="1" parent="dmQYqFDB0x4nXBeoUKJB-29">
          <mxGeometry x="-0.0724" relative="1" as="geometry">
            <mxPoint x="24" y="6" as="offset" />
          </mxGeometry>
        </mxCell>
        <mxCell id="dmQYqFDB0x4nXBeoUKJB-31" value="role" style="rounded=0;whiteSpace=wrap;html=1;fontStyle=0;fontSize=8;" vertex="1" parent="1">
          <mxGeometry x="805" y="120" width="50" height="30" as="geometry" />
        </mxCell>
        <mxCell id="dmQYqFDB0x4nXBeoUKJB-32" value="" style="rounded=0;orthogonalLoop=1;jettySize=auto;html=1;endArrow=none;endFill=0;dashed=1;dashPattern=8 8;exitX=0.5;exitY=1;exitDx=0;exitDy=0;" edge="1" parent="1" source="dmQYqFDB0x4nXBeoUKJB-31">
          <mxGeometry relative="1" as="geometry">
            <mxPoint x="830.26" y="160" as="sourcePoint" />
            <mxPoint x="830" y="180" as="targetPoint" />
          </mxGeometry>
        </mxCell>
        <mxCell id="dmQYqFDB0x4nXBeoUKJB-34" value="" style="rounded=0;orthogonalLoop=1;jettySize=auto;html=1;endArrow=none;endFill=0;dashed=1;dashPattern=8 8;exitX=0.5;exitY=1;exitDx=0;exitDy=0;" edge="1" parent="1" source="dmQYqFDB0x4nXBeoUKJB-25">
          <mxGeometry relative="1" as="geometry">
            <mxPoint x="765" y="160" as="sourcePoint" />
            <mxPoint x="765" y="450" as="targetPoint" />
          </mxGeometry>
        </mxCell>
        <mxCell id="dmQYqFDB0x4nXBeoUKJB-23" value="" style="rounded=0;whiteSpace=wrap;html=1;fillColor=none;" vertex="1" parent="1">
          <mxGeometry x="720" y="80" width="200" height="400" as="geometry" />
        </mxCell>
        <mxCell id="dmQYqFDB0x4nXBeoUKJB-35" value="Entities" style="text;html=1;align=center;verticalAlign=middle;resizable=0;points=[];autosize=1;strokeColor=none;fillColor=none;" vertex="1" parent="1">
          <mxGeometry x="855" y="120" width="60" height="30" as="geometry" />
        </mxCell>
        <mxCell id="dmQYqFDB0x4nXBeoUKJB-36" value="" style="rounded=0;whiteSpace=wrap;html=1;" vertex="1" parent="1">
          <mxGeometry x="755" y="220" width="20" height="130" as="geometry" />
        </mxCell>
        <mxCell id="dmQYqFDB0x4nXBeoUKJB-37" value="Activation bar" style="text;html=1;align=center;verticalAlign=middle;resizable=0;points=[];autosize=1;strokeColor=none;fillColor=none;" vertex="1" parent="1">
          <mxGeometry x="770" y="220" width="100" height="30" as="geometry" />
        </mxCell>
        <mxCell id="dmQYqFDB0x4nXBeoUKJB-38" value="Lifeline" style="text;html=1;align=center;verticalAlign=middle;resizable=0;points=[];autosize=1;strokeColor=none;fillColor=none;" vertex="1" parent="1">
          <mxGeometry x="770" y="178" width="60" height="30" as="geometry" />
        </mxCell>
        <mxCell id="dmQYqFDB0x4nXBeoUKJB-39" value="" style="endArrow=classic;html=1;rounded=0;exitX=1.02;exitY=0.464;exitDx=0;exitDy=0;exitPerimeter=0;" edge="1" parent="1">
          <mxGeometry width="50" height="50" relative="1" as="geometry">
            <mxPoint x="775.4000000000001" y="290.32" as="sourcePoint" />
            <mxPoint x="830" y="290" as="targetPoint" />
          </mxGeometry>
        </mxCell>
        <mxCell id="dmQYqFDB0x4nXBeoUKJB-40" value="" style="endArrow=classic;html=1;rounded=0;" edge="1" parent="1">
          <mxGeometry width="50" height="50" relative="1" as="geometry">
            <mxPoint x="830" y="320" as="sourcePoint" />
            <mxPoint x="775" y="320" as="targetPoint" />
          </mxGeometry>
        </mxCell>
        <mxCell id="dmQYqFDB0x4nXBeoUKJB-42" value="" style="endArrow=classic;html=1;rounded=0;entryX=0;entryY=0.5;entryDx=0;entryDy=0;exitX=1.005;exitY=0.033;exitDx=0;exitDy=0;exitPerimeter=0;" edge="1" parent="1" source="aP-4k5T7EdWQ0tLdJbdZ-7" target="8m5L4hxxBVkurXY3OP7I-4">
          <mxGeometry width="50" height="50" relative="1" as="geometry">
            <mxPoint x="320" y="150" as="sourcePoint" />
            <mxPoint x="370" y="100" as="targetPoint" />
          </mxGeometry>
        </mxCell>
        <mxCell id="dmQYqFDB0x4nXBeoUKJB-43" value="CheepRepository()" style="text;html=1;align=center;verticalAlign=middle;resizable=0;points=[];autosize=1;strokeColor=none;fillColor=none;fontSize=9;" vertex="1" parent="1">
          <mxGeometry x="321.25" y="120" width="100" height="20" as="geometry" />
        </mxCell>
        <mxCell id="dmQYqFDB0x4nXBeoUKJB-44" value="&lt;font&gt;_CheepRepo :&amp;nbsp;&lt;/font&gt;&lt;div&gt;&lt;font&gt;CheepRepository&lt;/font&gt;&lt;/div&gt;" style="rounded=0;whiteSpace=wrap;html=1;" vertex="1" parent="1">
          <mxGeometry x="421.25" y="480" width="112.5" height="40" as="geometry" />
        </mxCell>
        <mxCell id="dmQYqFDB0x4nXBeoUKJB-45" value="Method call" style="text;html=1;align=center;verticalAlign=middle;resizable=0;points=[];autosize=1;strokeColor=none;fillColor=none;" vertex="1" parent="1">
          <mxGeometry x="770" y="260" width="80" height="30" as="geometry" />
        </mxCell>
        <mxCell id="dmQYqFDB0x4nXBeoUKJB-46" value="Returned value" style="text;html=1;align=center;verticalAlign=middle;resizable=0;points=[];autosize=1;strokeColor=none;fillColor=none;" vertex="1" parent="1">
          <mxGeometry x="770" y="320" width="100" height="30" as="geometry" />
        </mxCell>
        <mxCell id="dmQYqFDB0x4nXBeoUKJB-47" value="loop" style="shape=umlFrame;whiteSpace=wrap;html=1;pointerEvents=0;width=33;height=30;" vertex="1" parent="1">
          <mxGeometry x="725" y="360" width="135" height="110" as="geometry" />
        </mxCell>
        <mxCell id="dmQYqFDB0x4nXBeoUKJB-48" value="[condition]" style="text;html=1;align=center;verticalAlign=middle;resizable=0;points=[];autosize=1;fillColor=default;" vertex="1" parent="1">
          <mxGeometry x="730" y="391" width="80" height="30" as="geometry" />
        </mxCell>
        <mxCell id="dmQYqFDB0x4nXBeoUKJB-49" value="Loop" style="text;html=1;align=center;verticalAlign=middle;resizable=0;points=[];autosize=1;strokeColor=none;fillColor=none;" vertex="1" parent="1">
          <mxGeometry x="870" y="391" width="50" height="30" as="geometry" />
        </mxCell>
      </root>
    </mxGraphModel>
  </diagram>
</mxfile>
